<?xml version="1.0" encoding="UTF-8"?>
<svg version="1.1" xmlns="http://www.w3.org/2000/svg" width="512" height="512">
<path d="M0 0 C168.96 0 337.92 0 512 0 C512 168.96 512 337.92 512 512 C343.04 512 174.08 512 0 512 C0 343.04 0 174.08 0 0 Z " fill="#211815" transform="translate(0,0)"/>
<path d="M0 0 C0.96292969 0.48339844 1.92585937 0.96679688 2.91796875 1.46484375 C9.1780924 4.72010805 14.56545258 8.5234067 20 13 C21.29550781 14.00160156 21.29550781 14.00160156 22.6171875 15.0234375 C30.81634963 21.45734093 39.27933081 29.17436234 45 38 C45 38.99 45 39.98 45 41 C45.99 41.33 46.98 41.66 48 42 C49.57158688 44.35289007 50.96052573 46.64976784 52.3125 49.125 C52.70912842 49.84421631 53.10575684 50.56343262 53.5144043 51.30444336 C69.11913749 80.20783828 74.46001865 115.58462135 65.29980469 147.43457031 C61.10149122 161.18074636 55.59800454 175.35798143 47 187 C46.34 187 45.68 187 45 187 C44.77441406 187.69480469 44.54882812 188.38960937 44.31640625 189.10546875 C42.70317438 192.65266405 40.46442144 195.39188997 37.9375 198.3125 C37.44435303 198.88645508 36.95120605 199.46041016 36.44311523 200.05175781 C15.55424494 223.97674234 -15.29525101 239.66055774 -47 242 C-57.32496915 242.450789 -67.67271414 242.26425493 -78 242 C-78 241.34 -78 240.68 -78 240 C-78.57105469 239.96261719 -79.14210938 239.92523438 -79.73046875 239.88671875 C-86.93191442 239.30281775 -94.09560711 238.17649791 -101 236 C-101.33 235.34 -101.66 234.68 -102 234 C-103.02287109 233.79697266 -103.02287109 233.79697266 -104.06640625 233.58984375 C-114.06264474 231.5799476 -123.86228297 225.47954618 -132.0625 219.625 C-132.96440063 218.98220093 -132.96440063 218.98220093 -133.88452148 218.32641602 C-135.30103146 217.2752948 -136.65774595 216.1444258 -138 215 C-138 214.34 -138 213.68 -138 213 C-138.57878906 212.91234375 -139.15757812 212.8246875 -139.75390625 212.734375 C-142.6057966 211.80193085 -143.87956602 210.41796213 -145.9375 208.25 C-146.63746094 207.52039063 -147.33742187 206.79078125 -148.05859375 206.0390625 C-148.69925781 205.36617187 -149.33992188 204.69328125 -150 204 C-150.825 203.21625 -151.65 202.4325 -152.5 201.625 C-158.32455967 195.50921235 -163.26959032 188.81243877 -167.875 181.75 C-168.44686035 180.88290405 -168.44686035 180.88290405 -169.03027344 179.99829102 C-171.2986352 176.44747945 -172.83529076 173.04583209 -174 169 C-174.66 169 -175.32 169 -176 169 C-176.9559563 165.89314204 -177.91007927 162.7858788 -178.85546875 159.67578125 C-179.55371361 157.43329519 -180.27885811 155.19867169 -181.05078125 152.98046875 C-188.32805113 131.54202506 -189.28482658 107.9454663 -184 86 C-183.83951172 85.33033203 -183.67902344 84.66066406 -183.51367188 83.97070312 C-181.8324935 77.0547968 -179.84674084 70.52476137 -177 64 C-176.30859478 61.22111387 -176.30859478 61.22111387 -176 59 C-175.34 59 -174.68 59 -174 59 C-173.5978125 57.67162109 -173.5978125 57.67162109 -173.1875 56.31640625 C-170.36856774 48.4437961 -164.91353204 41.72581639 -159.875 35.125 C-159.46765625 34.5899585 -159.0603125 34.05491699 -158.640625 33.50366211 C-155.97852314 30.07781611 -153.10691676 27.02267818 -150 24 C-149.30777344 23.27296875 -148.61554688 22.5459375 -147.90234375 21.796875 C-147.25394531 21.12140625 -146.60554688 20.4459375 -145.9375 19.75 C-144.96103516 18.72132813 -144.96103516 18.72132813 -143.96484375 17.671875 C-141.88002638 15.89791509 -140.58478897 15.64480757 -138 15 C-137.505 13.515 -137.505 13.515 -137 12 C-134.86499296 10.31178516 -132.76897026 8.8004335 -130.5 7.3125 C-129.83508545 6.87405762 -129.1701709 6.43561523 -128.48510742 5.98388672 C-90.13987625 -18.63379631 -40.40224386 -20.93918728 0 0 Z " fill="#09091E" transform="translate(315,142)"/>
<path d="M0 0 C3.15982926 2.81887012 4.24659317 5.09160848 4.5146637 9.21647644 C4.54139562 10.91519632 4.54614194 12.61434965 4.53344727 14.31323242 C4.54637062 15.70937775 4.54637062 15.70937775 4.55955505 17.13372803 C4.58223865 20.20792541 4.57546881 23.28121246 4.56640625 26.35546875 C4.57164273 28.499133 4.5779193 30.64279493 4.58518982 32.78645325 C4.59559998 37.28132966 4.5910265 41.77588967 4.57641602 46.27075195 C4.55927378 52.01289317 4.58266437 57.75402947 4.61790562 63.49605846 C4.63994378 67.92552747 4.63842179 72.35475874 4.6301403 76.78426552 C4.62932341 78.90002859 4.63613646 81.01580958 4.65091133 83.13152122 C4.7855968 105.92025413 4.7855968 105.92025413 -2.81394958 113.90617371 C-8.91961434 119.67786887 -14.68597105 120.39820965 -22.90234375 120.25 C-29.35658574 119.72910279 -32.78555271 116.67006322 -37 112 C-41.27061679 106.93852825 -42.53731653 102.25231723 -42.37109375 95.69140625 C-41.44442523 88.97062085 -38.32622686 83.65607096 -33 79.5 C-25.44846341 74.51260456 -19.75235026 74.24952995 -11 76 C-11 64.78 -11 53.56 -11 42 C-27.19849139 47.29566065 -43.23834869 52.91671243 -59.23730469 58.78198242 C-60.00199066 59.06103928 -60.76667664 59.34009613 -61.55453491 59.62760925 C-63.00332762 60.15641291 -64.45115133 60.68788115 -65.89785767 61.22236633 C-70.77482315 63 -70.77482315 63 -73 63 C-72.98334541 64.22576248 -72.98334541 64.22576248 -72.96635437 65.47628784 C-72.86576716 73.21381184 -72.78984124 80.95101452 -72.74093914 88.68902397 C-72.71495182 92.66634101 -72.67975634 96.64311348 -72.62280273 100.62011719 C-72.5680898 104.46514284 -72.53849795 108.30964793 -72.52561378 112.15503311 C-72.51644364 113.61496286 -72.49853773 115.07486723 -72.47134972 116.5345726 C-72.30143497 126.04371614 -72.94323451 134.09430243 -79.37236023 141.60275269 C-84.15855516 146.03868381 -90.0754664 148.10576849 -96.5 148.4375 C-102.39147066 148.18442995 -106.70884279 146.1603628 -110.984375 142.12890625 C-117.0642665 135.48373558 -118.53135387 130.22487804 -118.37890625 121.23046875 C-117.65192863 115.03242246 -114.51173984 111.15219335 -109.9375 107.125 C-104.95698177 103.52207192 -102.12283602 102.74076076 -95.875 102.8125 C-94.63492188 102.81894531 -93.39484375 102.82539063 -92.1171875 102.83203125 C-89 103 -89 103 -87 104 C-87.00888245 103.09433289 -87.01776489 102.18866577 -87.0269165 101.2555542 C-87.10705674 92.72148875 -87.16796152 84.18754963 -87.20724869 75.65319443 C-87.22812571 71.26554058 -87.2564451 66.87819759 -87.30175781 62.49072266 C-87.34521201 58.25671584 -87.36913624 54.02300806 -87.37950897 49.78879547 C-87.38690117 48.17322329 -87.4013365 46.55766751 -87.42292023 44.9422226 C-87.45194982 42.67954617 -87.45595638 40.41810605 -87.45410156 38.15527344 C-87.46298401 36.86731873 -87.47186646 35.57936401 -87.48101807 34.25238037 C-86.91224558 30.40665275 -86.06994945 29.30382156 -83 27 C-81.16674805 26.0332489 -81.16674805 26.0332489 -79.26171875 25.3659668 C-78.53621826 25.10531937 -77.81071777 24.84467194 -77.06323242 24.5761261 C-76.27924072 24.30737167 -75.49524902 24.03861725 -74.6875 23.76171875 C-73.85645752 23.46641769 -73.02541504 23.17111664 -72.16918945 22.86686707 C-70.37880753 22.23179308 -68.58666284 21.60167115 -66.79296875 20.97601318 C-63.99273446 19.99746103 -61.19882529 19.00262467 -58.40625 18.00244141 C-52.60840417 15.92711853 -46.80461417 13.86880213 -41 11.8125 C-38.03659843 10.76182183 -35.07331677 9.71080771 -32.11021423 8.6592865 C-30.22874249 7.9917724 -28.34704489 7.32489451 -26.46510315 6.65870667 C-20.97730025 4.71349577 -15.50610605 2.73142301 -10.06616211 0.65527344 C-6.41959222 -0.50121877 -3.80012795 -0.6000202 0 0 Z " fill="#FBFBFC" transform="translate(309,178)"/>
<path d="M0 0 C3.32524579 0.48493168 3.98999077 0.87225023 6 3.4375 C6.32381704 6.34808808 6.46802766 9.03954966 6.46875 11.953125 C6.47636353 12.80114685 6.48397705 13.6491687 6.49182129 14.52288818 C6.5026371 16.32512475 6.50546938 18.12742408 6.50097656 19.9296875 C6.50001804 22.63654687 6.54132586 25.34043548 6.5859375 28.046875 C6.66235252 39.29561863 5.05418636 47.9625452 1 58.4375 C0.26327633 61.126222 -0.25085662 63.75166784 -0.75 66.5 C-0.97171875 67.68722656 -1.1934375 68.87445313 -1.421875 70.09765625 C-1.61265625 71.19980469 -1.8034375 72.30195313 -2 73.4375 C-2.185625 74.38367188 -2.37125 75.32984375 -2.5625 76.3046875 C-4.11233953 87.40264553 -3.33386431 98.99736751 -1.875 110.0625 C-1.78250977 110.834729 -1.69001953 111.60695801 -1.59472656 112.40258789 C-0.98058987 116.55991901 -0.05410689 120.4121377 1.4362793 124.33911133 C5.63815163 135.4813402 6.86575644 145.25713992 6.61743164 157.14770508 C6.56148376 159.92545504 6.55591276 162.7002523 6.55664062 165.47851562 C6.54192993 167.25523439 6.52446036 169.03193298 6.50390625 170.80859375 C6.50056778 171.63346786 6.49722931 172.45834198 6.49378967 173.30821228 C6.35120351 178.98888863 6.35120351 178.98888863 4.66026306 181.14881897 C3 182.4375 3 182.4375 0 182.875 C-3 182.4375 -3 182.4375 -4.66369057 180.85139465 C-6.47903398 177.5721783 -6.37762813 175.12110238 -6.38095093 171.37768555 C-6.38797089 170.31098523 -6.38797089 170.31098523 -6.39513266 169.2227354 C-6.4070993 166.83970684 -6.39761923 164.45725159 -6.38818359 162.07421875 C-6.39224856 160.36585148 -6.39759003 158.65748684 -6.40411377 156.9491272 C-6.41780206 152.30868217 -6.41248249 147.668437 -6.40297651 143.02798843 C-6.39538776 138.17449652 -6.40242334 133.32102187 -6.40713501 128.4675293 C-6.41259485 120.31653772 -6.40539496 112.16562765 -6.39111328 104.01464844 C-6.37478633 94.58743221 -6.38007468 85.16041063 -6.3965925 75.73319912 C-6.41020086 67.64308473 -6.41213021 59.55302897 -6.40427649 51.46290684 C-6.3995964 46.62932202 -6.39898436 41.79582872 -6.40888596 36.96224976 C-6.41754388 32.41827648 -6.41155524 27.87455446 -6.39420319 23.33060837 C-6.39023206 21.66168002 -6.39138308 19.99273057 -6.39799118 18.32381058 C-6.40617225 16.04802518 -6.39592754 13.77304815 -6.38095093 11.49731445 C-6.37925431 9.58593437 -6.37925431 9.58593437 -6.37752342 7.63594055 C-5.82814884 2.98154871 -4.77200274 0.69591707 0 0 Z " fill="#F74343" transform="translate(132,164.5625)"/>
<path d="M0 0 C2.91980817 0.52406813 3.64881615 1.11154407 5.4375 3.4375 C5.81502342 5.70358276 5.81502342 5.70358276 5.81845093 8.40966797 C5.8269104 9.43598328 5.83536987 10.46229858 5.84408569 11.51971436 C5.838013 12.64500549 5.83194031 13.77029663 5.82568359 14.9296875 C5.83094055 16.11524231 5.83619751 17.30079712 5.84161377 18.52227783 C5.85256531 21.77438765 5.84998413 25.02613197 5.84047651 28.27823639 C5.83288594 31.68012771 5.83992384 35.08199445 5.84463501 38.48388672 C5.85009434 44.19698476 5.84289638 49.90996649 5.82861328 55.62304688 C5.81228632 62.22998564 5.81757471 68.83664669 5.8340925 75.44357872 C5.84770239 81.11415168 5.84962949 86.78464098 5.84177649 92.45522499 C5.8370972 95.84289732 5.83648202 99.23043907 5.84638596 102.61810303 C5.85397828 106.39403236 5.84242655 110.16942341 5.82568359 113.9453125 C5.83175629 115.07060364 5.83782898 116.19589478 5.84408569 117.35528564 C5.83139648 118.89475861 5.83139648 118.89475861 5.81845093 120.46533203 C5.81731985 121.35834015 5.81618877 122.25134827 5.81502342 123.17141724 C5.4375 125.4375 5.4375 125.4375 4.13634682 127.256073 C2.4375 128.4375 2.4375 128.4375 -1.125 128.3125 C-4.5625 127.4375 -4.5625 127.4375 -6.5625 124.4375 C-6.81976891 122.20544529 -6.81976891 122.20544529 -6.82992554 119.54798889 C-6.84272049 118.03592613 -6.84272049 118.03592613 -6.85577393 116.49331665 C-6.85441437 114.83578873 -6.85441437 114.83578873 -6.85302734 113.14477539 C-6.85974457 111.98033401 -6.86646179 110.81589264 -6.87338257 109.61616516 C-6.89242579 105.75578581 -6.89628986 101.89557969 -6.8984375 98.03515625 C-6.90323794 96.03475749 -6.90804159 94.03435869 -6.91335833 92.03396124 C-6.92964399 85.74308695 -6.93452709 79.4522699 -6.93310547 73.16137695 C-6.93190361 66.67142976 -6.95301353 60.18181489 -6.9845928 53.69195181 C-7.01074015 48.11988448 -7.02147344 42.54792581 -7.02019465 36.97579759 C-7.0196846 33.6478071 -7.02722626 30.32017888 -7.04655075 26.99223518 C-7.06608371 23.28108025 -7.06042202 19.5707871 -7.04833984 15.85961914 C-7.05957886 14.75662476 -7.07081787 13.65363037 -7.08239746 12.51721191 C-7.07400848 11.50635025 -7.06561951 10.49548859 -7.05697632 9.45399475 C-7.05806585 8.57665711 -7.05915539 7.69931948 -7.06027794 6.79539585 C-6.22299995 2.82934162 -3.961529 0.67635861 0 0 Z " fill="#F84343" transform="translate(429.5625,191.5625)"/>
<path d="M0 0 C3.4375 0.875 3.4375 0.875 5.4375 3.875 C5.69476891 6.10705471 5.69476891 6.10705471 5.70492554 8.76451111 C5.71345551 9.77255295 5.72198547 10.78059479 5.73077393 11.81918335 C5.72941437 13.47671127 5.72941437 13.47671127 5.72802734 15.16772461 C5.73810318 16.91438667 5.73810318 16.91438667 5.74838257 18.69633484 C5.76742579 22.55671419 5.77128986 26.41692031 5.7734375 30.27734375 C5.77823794 32.27774251 5.78304159 34.27814131 5.78835833 36.27853876 C5.80464399 42.56941305 5.80952709 48.8602301 5.80810547 55.15112305 C5.80690361 61.64107024 5.82801353 68.13068511 5.8595928 74.62054819 C5.88574015 80.19261552 5.89647344 85.76457419 5.89519465 91.33670241 C5.8946846 94.6646929 5.90222626 97.99232112 5.92155075 101.32026482 C5.94108371 105.03141975 5.93542202 108.7417129 5.92333984 112.45288086 C5.93457886 113.55587524 5.94581787 114.65886963 5.95739746 115.79528809 C5.944814 117.31158058 5.944814 117.31158058 5.93197632 118.85850525 C5.93306585 119.73584289 5.93415539 120.61318052 5.93527794 121.51710415 C5.26970295 124.66982826 3.91407254 125.88163199 1.4375 127.875 C-1.125 128.3125 -1.125 128.3125 -3.5625 127.875 C-5.76296994 126.23115692 -6.48404759 125.34591026 -6.94002342 122.60891724 C-6.9411545 121.71590912 -6.94228558 120.822901 -6.94345093 119.90283203 C-6.9519104 118.87651672 -6.96036987 117.85020142 -6.96908569 116.79278564 C-6.963013 115.66749451 -6.95694031 114.54220337 -6.95068359 113.3828125 C-6.95594055 112.19725769 -6.96119751 111.01170288 -6.96661377 109.79022217 C-6.97756531 106.53811235 -6.97498413 103.28636803 -6.96547651 100.03426361 C-6.95788594 96.63237229 -6.96492384 93.23050555 -6.96963501 89.82861328 C-6.97509434 84.11551524 -6.96789638 78.40253351 -6.95361328 72.68945312 C-6.93728632 66.08251436 -6.94257471 59.47585331 -6.9590925 52.86892128 C-6.97270239 47.19834832 -6.97462949 41.52785902 -6.96677649 35.85727501 C-6.9620972 32.46960268 -6.96148202 29.08206093 -6.97138596 25.69439697 C-6.97897828 21.91846764 -6.96742655 18.14307659 -6.95068359 14.3671875 C-6.95675629 13.24189636 -6.96282898 12.11660522 -6.96908569 10.95721436 C-6.96062622 9.93089905 -6.95216675 8.90458374 -6.94345093 7.84716797 C-6.94231985 6.95415985 -6.94118877 6.06115173 -6.94002342 5.14108276 C-6.5625 2.875 -6.5625 2.875 -5.26134682 1.056427 C-3.5625 -0.125 -3.5625 -0.125 0 0 Z " fill="#F84343" transform="translate(83.5625,192.125)"/>
<path d="M0 0 C1.66369057 1.08734226 1.66369057 1.08734226 3 3 C3.37752342 6.09101009 3.37752342 6.09101009 3.38095093 9.9775238 C3.3856309 10.69188648 3.39031087 11.40624915 3.39513266 12.14225918 C3.40712358 14.5422111 3.39760975 16.94159631 3.38818359 19.34155273 C3.39224752 21.05962457 3.3975884 22.7776938 3.40411377 24.49575806 C3.41781548 29.16725252 3.4124767 33.83854869 3.40297651 38.51004672 C3.39539346 43.39424098 3.40242187 48.278418 3.40713501 53.16261292 C3.41259703 61.36665909 3.40538978 69.57062431 3.39111328 77.7746582 C3.37479135 87.26376921 3.38007016 96.7526868 3.3965925 106.2417931 C3.41020113 114.38284221 3.41212991 122.52383306 3.40427649 130.66488987 C3.39959585 135.52978852 3.39898576 140.39459623 3.40888596 145.25948906 C3.41754408 149.83381717 3.41155485 154.4078957 3.39420319 158.98219681 C3.39023193 160.66241224 3.39138329 162.34264863 3.39799118 164.02285576 C3.40617188 166.31401949 3.39592788 168.60438019 3.38095093 170.89549255 C3.37981985 172.1784191 3.37868877 173.46134565 3.37752342 174.78314877 C2.97584949 178.20578481 2.47913767 179.64063788 0 182 C-3.02981421 182.44184791 -4.99881439 182.61387748 -7.65600586 180.98461914 C-9.78273501 177.84416842 -9.48822172 174.47841775 -9.50390625 170.80859375 C-9.51389145 169.98988297 -9.52387665 169.17117218 -9.53416443 168.32765198 C-9.54937034 166.58510376 -9.55638946 164.84246801 -9.5559082 163.09985352 C-9.5623504 160.49792092 -9.6164534 157.90006387 -9.67382812 155.29882812 C-9.77922464 144.70357171 -8.29254819 135.92747669 -4.47583008 126.03686523 C3.6896125 104.78054085 3.53548919 74.01559291 -5.24267578 53.02905273 C-9.22189725 43.33900346 -9.71693999 34.82336548 -9.54199219 24.44604492 C-9.49944595 21.77775292 -9.50099682 19.11193971 -9.5078125 16.44335938 C-9.49733998 14.73956576 -9.48441242 13.03578506 -9.46875 11.33203125 C-9.46854858 10.53835648 -9.46834717 9.7446817 -9.46813965 8.92695618 C-9.35120874 3.52278725 -9.35120874 3.52278725 -7.65820312 1.00268555 C-5.03047386 -0.58625499 -2.99060052 -0.37382507 0 0 Z " fill="#F74343" transform="translate(383,165)"/>
<path d="M0 0 C1.94714308 1.51538219 2.8812933 2.41514052 3.37752342 4.86003113 C3.37922004 5.91194389 3.37922004 5.91194389 3.38095093 6.98510742 C3.3894104 7.79265472 3.39786987 8.60020203 3.40658569 9.43222046 C3.400513 10.3143924 3.39444031 11.19656433 3.38818359 12.10546875 C3.39344055 13.03743073 3.39869751 13.9693927 3.40411377 14.92959595 C3.41733695 18.01573355 3.40856739 21.10135698 3.3984375 24.1875 C3.40045757 26.32837015 3.40336844 28.46923963 3.40713501 30.61010742 C3.41156151 35.09918767 3.40511673 39.58808897 3.39111328 44.07714844 C3.37402133 49.8377456 3.38386076 55.59792348 3.40183067 61.35850525 C3.41265964 65.77993949 3.40922623 70.20127397 3.4014473 74.62271118 C3.39944284 76.7470403 3.40191314 78.8713784 3.40888596 80.99569702 C3.41648575 83.96221998 3.4049167 86.92805934 3.38818359 89.89453125 C3.39425629 90.77670319 3.40032898 91.65887512 3.40658569 92.56777954 C3.39389648 93.77910049 3.39389648 93.77910049 3.38095093 95.01489258 C3.37981985 95.71616776 3.37868877 96.41744293 3.37752342 97.13996887 C2.87472173 99.61723715 2.02930124 100.52313611 0 102 C-3.625 101.8125 -3.625 101.8125 -7 101 C-8.70952669 97.58094662 -8.15644207 93.66306188 -8.16113281 89.90039062 C-8.16609772 88.95721481 -8.17106262 88.014039 -8.17617798 87.0422821 C-8.19081707 83.9135974 -8.19760356 80.78496336 -8.203125 77.65625 C-8.20887382 75.48913572 -8.21463158 73.32202146 -8.22039795 71.15490723 C-8.2309121 66.60864016 -8.23675245 62.0623908 -8.24023438 57.51611328 C-8.24572823 51.6780828 -8.26977358 45.84028448 -8.29820633 40.00232697 C-8.31678569 35.52605494 -8.32203573 31.04983944 -8.32357025 26.5735321 C-8.3266066 24.42045315 -8.33466789 22.26737542 -8.34775543 20.11433411 C-8.3647222 17.10924334 -8.36295903 14.10472798 -8.35644531 11.09960938 C-8.37026749 9.75457588 -8.37026749 9.75457588 -8.3843689 8.38237 C-8.36749268 5.9095459 -8.36749268 5.9095459 -8 2 C-4.76746204 -0.15502531 -3.74849077 -0.46856135 0 0 Z " fill="#FE4444" transform="translate(110,205)"/>
<path d="M0 0 C1.670625 0.4021875 1.670625 0.4021875 3.375 0.8125 C5.07166184 4.20582367 4.53142099 8.07090013 4.53613281 11.80444336 C4.54109772 12.73625931 4.54606262 13.66807526 4.55117798 14.62812805 C4.56581809 17.71954071 4.57260412 20.81090208 4.578125 23.90234375 C4.58387423 26.04464215 4.58963199 28.18694053 4.59539795 30.32923889 C4.60591273 34.82423137 4.6117525 39.31920593 4.61523438 43.81420898 C4.62072492 49.58264011 4.644763 55.35083588 4.67320633 61.11919308 C4.69179954 65.54489339 4.6970365 69.97053658 4.69857025 74.39627266 C4.70160402 76.52340547 4.70965676 78.65053711 4.72275543 80.77763176 C4.73974917 83.74899262 4.7379522 86.71977281 4.73144531 89.69116211 C4.7406601 90.57490509 4.74987488 91.45864807 4.7593689 92.36917114 C4.75379974 93.1781636 4.74823059 93.98715607 4.74249268 94.82066345 C4.74395924 95.52323745 4.7454258 96.22581144 4.7469368 96.94967556 C4.25777427 99.39961842 3.32285882 100.29318445 1.375 101.8125 C-1.125 102.1875 -1.125 102.1875 -3.625 101.8125 C-5.56963542 100.29441612 -6.50631888 99.39723348 -7.00252342 96.95246887 C-7.0036545 96.2511937 -7.00478558 95.54991852 -7.00595093 94.82739258 C-7.0144104 94.01984528 -7.02286987 93.21229797 -7.03158569 92.38027954 C-7.025513 91.4981076 -7.01944031 90.61593567 -7.01318359 89.70703125 C-7.01844055 88.77506927 -7.02369751 87.8431073 -7.02911377 86.88290405 C-7.04233695 83.79676645 -7.03356739 80.71114302 -7.0234375 77.625 C-7.02545757 75.48412985 -7.02836844 73.34326037 -7.03213501 71.20239258 C-7.03656151 66.71331233 -7.03011673 62.22441103 -7.01611328 57.73535156 C-6.99902133 51.9747544 -7.00886076 46.21457652 -7.02683067 40.45399475 C-7.03765964 36.03256051 -7.03422623 31.61122603 -7.0264473 27.18978882 C-7.02444284 25.0654597 -7.02691314 22.9411216 -7.03388596 20.81680298 C-7.04148575 17.85028002 -7.0299167 14.88444066 -7.01318359 11.91796875 C-7.01925629 11.03579681 -7.02532898 10.15362488 -7.03158569 9.24472046 C-7.02312622 8.43717316 -7.01466675 7.62962585 -7.00595093 6.79760742 C-7.00425431 5.74569466 -7.00425431 5.74569466 -7.00252342 4.67253113 C-6.13550601 0.40079783 -4.11014604 -0.21259376 0 0 Z " fill="#FE4444" transform="translate(405.625,205.1875)"/>
<path d="M0 0 C2 2 2 2 2.24050903 5.01187134 C2.23606781 6.30426727 2.23162659 7.59666321 2.22705078 8.92822266 C2.22734283 9.64052536 2.22763489 10.35282806 2.22793579 11.0867157 C2.22654016 13.44595434 2.21096827 15.80487889 2.1953125 18.1640625 C2.19158319 19.79788032 2.18873583 21.43170038 2.18673706 23.06552124 C2.1790941 27.36952876 2.15943999 31.67340168 2.1373291 35.97735596 C2.1168849 40.36769795 2.1077384 44.75806165 2.09765625 49.1484375 C2.07619466 57.76568682 2.04205081 66.38282668 2 75 C-1.96 75 -5.92 75 -10 75 C-10.06946019 65.53383128 -10.12279088 56.06775006 -10.15543652 46.60138226 C-10.1711035 42.20592445 -10.19236044 37.81064078 -10.22631836 33.4152832 C-10.25887524 29.17481076 -10.27684523 24.93450599 -10.28463173 20.69391823 C-10.29018187 19.07474947 -10.30101979 17.45559006 -10.31719017 15.83649254 C-10.33891617 13.57137477 -10.34196903 11.30695297 -10.34057617 9.04174805 C-10.34723801 7.75157272 -10.35389984 6.4613974 -10.36076355 5.13212585 C-10 2 -10 2 -8.70137024 0.048172 C-5.77397539 -1.75532335 -3.19763516 -0.75580467 0 0 Z " fill="#FA4444" transform="translate(260,53)"/>
<path d="M0 0 C3.96 0 7.92 0 12 0 C12.09267419 9.31848416 12.1637516 18.63680972 12.20724869 27.95565414 C12.22812503 32.28277614 12.25644312 36.60958288 12.30175781 40.93652344 C12.34521452 45.11217599 12.36913675 49.2875253 12.37950897 53.46338654 C12.38690072 55.0566307 12.40133521 56.64985824 12.42292023 58.24297333 C12.45195327 60.47452169 12.45595626 62.70481664 12.45410156 64.93652344 C12.46298401 66.20671326 12.47186646 67.47690308 12.48101807 68.7855835 C11.91519527 72.56670993 11.03177024 73.74459627 8 76 C5.18650747 76.48035238 3.7604575 76.50690764 1.36894226 74.9127655 C-0.72222122 71.99087064 -0.35894812 69.51628611 -0.34057617 65.95825195 C-0.34101425 65.24580322 -0.34145233 64.53335449 -0.34190369 63.79931641 C-0.3398143 61.44535885 -0.31647715 59.09211431 -0.29296875 56.73828125 C-0.2873733 55.10589487 -0.28310296 53.47350345 -0.28010559 51.84111023 C-0.2686527 47.54525842 -0.23918187 43.24971104 -0.20599365 38.95397949 C-0.17530224 34.57027301 -0.16160225 30.18651733 -0.14648438 25.80273438 C-0.11431245 17.20168323 -0.06311093 8.60087949 0 0 Z " fill="#FA4343" transform="translate(250,384)"/>
<path d="M0 0 C2.58788962 2.05678697 3.84484927 3.28631089 4.55503845 6.55316162 C4.57933426 7.51498352 4.60363007 8.47680542 4.62866211 9.46777344 C4.66386459 10.56281189 4.69906708 11.65785034 4.7353363 12.78607178 C4.74919876 13.96526184 4.76306122 15.1444519 4.77734375 16.359375 C4.79777237 17.57772034 4.81820099 18.79606567 4.83924866 20.05133057 C4.87264941 22.63012873 4.89460435 25.20909668 4.90600586 27.78808594 C4.93729081 31.72368444 5.04844944 35.65197252 5.16210938 39.5859375 C5.18463866 42.09371041 5.20237252 44.6015319 5.21484375 47.109375 C5.25906967 48.28046814 5.30329559 49.45156128 5.34886169 50.65814209 C5.29278545 55.79995232 5.17821525 58.78333353 1.50418091 62.57727051 C-5.83908005 68 -5.83908005 68 -8 68 C-8.06947615 59.5768966 -8.12279887 51.15391268 -8.15543652 42.73059368 C-8.17110009 38.81939774 -8.19235063 34.90839766 -8.22631836 30.99731445 C-8.25888769 27.22367741 -8.2768478 23.4502289 -8.28463173 19.67646217 C-8.29017965 18.23591964 -8.30101336 16.79538754 -8.31719017 15.35492516 C-8.33892959 13.3391766 -8.3402251 11.32323879 -8.34057617 9.30737305 C-8.34723801 8.15931686 -8.35389984 7.01126068 -8.36076355 5.82841492 C-8 3 -8 3 -6.63105774 1.13313293 C-4.24876113 -0.52190274 -2.83660717 -0.48429878 0 0 Z " fill="#F64343" transform="translate(184,88)"/>
<path d="M0 0 C1.813492 1.14426266 3.62576725 2.29045392 5.4375 3.4375 C6.44683594 4.07558594 7.45617187 4.71367187 8.49609375 5.37109375 C11 7 11 7 12 8 C12.11455273 9.72743624 12.15962216 11.45953079 12.17700195 13.19067383 C12.18983719 14.29884964 12.20267242 15.40702545 12.21589661 16.54878235 C12.22328354 17.75600449 12.23067047 18.96322662 12.23828125 20.20703125 C12.246353 21.43910812 12.25442474 22.671185 12.26274109 23.94059753 C12.27660235 26.55421533 12.28731531 29.16785138 12.29516602 31.78149414 C12.30402835 34.46369123 12.32490168 37.14537062 12.35668945 39.82739258 C12.39920262 43.68326578 12.41551422 47.53845325 12.42578125 51.39453125 C12.44328934 52.59568069 12.46079742 53.79683014 12.47883606 55.03437805 C12.47591049 56.15201035 12.47298492 57.26964264 12.4699707 58.42114258 C12.47583694 59.40407791 12.48170319 60.38701324 12.48774719 61.3997345 C11.85913631 64.75096895 10.68791084 65.96042052 8 68 C4.3014996 67.85205998 2.64194427 67.64194427 0 65 C-0.24050903 62.2918396 -0.24050903 62.2918396 -0.22705078 58.80615234 C-0.22689972 57.50495453 -0.22674866 56.20375671 -0.22659302 54.86312866 C-0.21637893 53.43739673 -0.20594692 52.01166635 -0.1953125 50.5859375 C-0.19158295 49.13148187 -0.1887357 47.67702373 -0.18673706 46.2225647 C-0.179096 42.39201944 -0.15944357 38.56162554 -0.1373291 34.73114014 C-0.11688078 30.82338509 -0.10773752 26.91560561 -0.09765625 23.0078125 C-0.07619802 15.33847262 -0.04205651 7.66925751 0 0 Z " fill="#F64243" transform="translate(176,356)"/>
<path d="M0 0 C0.06947842 8.29271909 0.12280001 16.58531679 0.15543652 24.87825489 C0.1710996 28.72891831 0.19234923 32.57938275 0.22631836 36.42993164 C0.25888946 40.14521429 0.27684817 43.86030544 0.28463173 47.57571983 C0.29017934 48.99393415 0.30101244 50.41213787 0.31719017 51.83027077 C0.3389319 53.81488467 0.34022513 55.79969086 0.34057617 57.78442383 C0.34723801 58.91471512 0.35389984 60.04500641 0.36076355 61.20954895 C0 64 0 64 -1.36894226 65.86112976 C-3.75007458 67.5237323 -5.16045871 67.48479973 -8 67 C-10.59395318 64.94057003 -11.84668243 63.71579346 -12.54830933 60.44010925 C-12.56958893 59.47527115 -12.59086853 58.51043304 -12.61279297 57.51635742 C-12.66075516 55.86895821 -12.66075516 55.86895821 -12.70968628 54.1882782 C-12.72041168 53.00595108 -12.73113708 51.82362396 -12.7421875 50.60546875 C-12.76927292 48.77439323 -12.76927292 48.77439323 -12.79690552 46.90632629 C-12.82592178 44.32331154 -12.84368686 41.74014959 -12.85107422 39.15698242 C-12.87485927 35.21084852 -12.97317716 31.27098345 -13.07421875 27.32617188 C-13.09314926 24.81513468 -13.10761837 22.30405907 -13.1171875 19.79296875 C-13.15625214 18.61671432 -13.19531677 17.4404599 -13.23556519 16.2285614 C-13.14754724 8.20751575 -13.14754724 8.20751575 -9.76861572 4.65200806 C-3.30051389 0 -3.30051389 0 0 0 Z " fill="#F64343" transform="translate(336,357)"/>
<path d="M0 0 C2.95246689 0.52992995 3.67253464 1.03796157 5.4375 3.4375 C5.79826355 6.22795105 5.79826355 6.22795105 5.77807617 9.65307617 C5.77784958 10.9341777 5.77762299 12.21527924 5.77738953 13.53520203 C5.76206957 14.93362781 5.74642158 16.33205004 5.73046875 17.73046875 C5.72487268 19.16107234 5.72060263 20.59168169 5.71760559 22.02229309 C5.70615756 25.78551132 5.67669115 29.54838156 5.64349365 33.3114624 C5.61279163 37.15225517 5.5991 40.99310423 5.58398438 44.83398438 C5.55182106 52.36864814 5.50062566 59.90302529 5.4375 67.4375 C4.8639679 67.14540146 4.29043579 66.85330292 3.69952393 66.55235291 C1.48795069 65.42668015 1.48795069 65.42668015 -0.67071533 64.59132385 C-3.09042994 63.44022862 -4.72436844 62.40152782 -6.5625 60.4375 C-7.74031326 56.24835151 -7.58916562 52.16598176 -7.484375 47.83984375 C-7.48254211 46.61342667 -7.48070923 45.38700958 -7.4788208 44.12342834 C-7.46674785 41.53354387 -7.43525161 38.9436874 -7.38574219 36.35424805 C-7.31269349 32.38551244 -7.30370347 28.42050965 -7.3046875 24.45117188 C-7.28502563 21.9348635 -7.2617118 19.41858045 -7.234375 16.90234375 C-7.22992371 15.71374252 -7.22547241 14.5251413 -7.22088623 13.30052185 C-7.19536682 12.19580032 -7.16984741 11.0910788 -7.14355469 9.95288086 C-7.1283075 8.98201035 -7.1130603 8.01113983 -7.09735107 7.010849 C-6.24795537 2.92411964 -4.11822701 0.70311193 0 0 Z " fill="#F64443" transform="translate(330.5625,87.5625)"/>
<path d="M0 0 C1.66621399 1.18086243 1.66621399 1.18086243 3 3 C3.36076355 5.48674011 3.36076355 5.48674011 3.34057617 8.48120117 C3.34034958 9.60213669 3.34012299 10.7230722 3.33988953 11.87797546 C3.32440567 13.08742325 3.30892181 14.29687103 3.29296875 15.54296875 C3.28872391 16.78170242 3.28447906 18.0204361 3.28010559 19.29670715 C3.26614733 22.58649001 3.23920213 25.87583203 3.20599365 29.16546631 C3.17527933 32.52366746 3.16159739 35.88193318 3.14648438 39.24023438 C3.11337348 45.82701802 3.06156859 52.41342335 3 59 C-0.96 59.66 -4.92 60.32 -9 61 C-9.06776153 53.48959042 -9.12280772 45.97929451 -9.15543652 38.46865368 C-9.17109635 34.98118424 -9.1923398 31.49393468 -9.22631836 28.0065918 C-9.2651328 23.99786257 -9.2797065 19.98936452 -9.29296875 15.98046875 C-9.30845261 14.72727341 -9.32393646 13.47407806 -9.33988953 12.1829071 C-9.34011612 11.02193008 -9.34034271 9.86095306 -9.34057617 8.66479492 C-9.34723801 7.64109299 -9.35389984 6.61739105 -9.36076355 5.56266785 C-9 3 -9 3 -7.66621399 1.16938782 C-5.07222536 -0.65113387 -3.07394153 -0.38424269 0 0 Z " fill="#FB4444" transform="translate(234,71)"/>
<path d="M0 0 C5.94 0.99 5.94 0.99 12 2 C12.06776678 9.24965568 12.12281052 16.49913841 12.15543652 23.74904346 C12.17109511 27.11544877 12.19233621 30.48162623 12.22631836 33.84790039 C12.26261749 37.71767249 12.2797075 41.58712026 12.29296875 45.45703125 C12.30845261 46.66647903 12.32393646 47.87592682 12.33988953 49.12202454 C12.34022942 50.80342781 12.34022942 50.80342781 12.34057617 52.51879883 C12.34723801 53.50697098 12.35389984 54.49514313 12.36076355 55.51325989 C12 58 12 58 10.66621399 59.81523132 C8.04666139 61.67787555 6.11153674 61.45376577 3 61 C0.81513596 58.80763279 0.05969479 57.43765578 -0.36076355 54.3550415 C-0.35410172 53.35132507 -0.34743988 52.34760864 -0.34057617 51.31347656 C-0.34034958 50.17259583 -0.34012299 49.03171509 -0.33988953 47.85626221 C-0.32440567 46.63010193 -0.30892181 45.40394165 -0.29296875 44.140625 C-0.28872391 42.88111023 -0.28447906 41.62159546 -0.28010559 40.32391357 C-0.26616121 36.98311462 -0.23922925 33.64293416 -0.20599365 30.30230713 C-0.17524839 26.89039442 -0.16159079 23.4784177 -0.14648438 20.06640625 C-0.11339803 13.37741146 -0.06160562 6.68879048 0 0 Z " fill="#FB4444" transform="translate(225,380)"/>
<path d="M0 0 C0.06949629 7.3800015 0.12280914 14.7599325 0.15543652 22.14019489 C0.17109574 25.56713223 0.19233804 28.99384577 0.22631836 32.4206543 C0.26513514 36.35983608 0.27970716 40.29892709 0.29296875 44.23828125 C0.30845261 45.46960281 0.32393646 46.70092438 0.33988953 47.96955872 C0.34022942 49.68099312 0.34022942 49.68099312 0.34057617 51.42700195 C0.34723801 52.432939 0.35389984 53.43887604 0.36076355 54.47529602 C0 57 0 57 -1.33378601 58.82096863 C-3.95487839 60.67568247 -5.89124546 60.45336004 -9 60 C-11.14455427 57.83331222 -11.93465242 56.46534619 -12.36076355 53.43096924 C-12.35410172 52.46278259 -12.34743988 51.49459595 -12.34057617 50.49707031 C-12.34034958 49.39623108 -12.34012299 48.29539185 -12.33988953 47.16119385 C-12.32440567 45.97878113 -12.30892181 44.79636841 -12.29296875 43.578125 C-12.28872391 42.36300232 -12.28447906 41.14787964 -12.28010559 39.89593506 C-12.26330876 36.01373161 -12.22565338 32.13204664 -12.1875 28.25 C-12.17245452 25.61849708 -12.15876588 22.98698602 -12.14648438 20.35546875 C-12.11340185 13.90346883 -12.06319179 7.45177146 -12 1 C-7.92212105 0.10554296 -4.18001995 -0.08196118 0 0 Z " fill="#FB4444" transform="translate(287,381)"/>
<path d="M0 0 C1.66621399 1.17512512 1.66621399 1.17512512 3 3 C3.36076355 5.52470398 3.36076355 5.52470398 3.34057617 8.57299805 C3.34034958 9.71395432 3.34012299 10.85491058 3.33988953 12.03044128 C3.32440567 13.26176285 3.30892181 14.49308441 3.29296875 15.76171875 C3.28872391 17.02264847 3.28447906 18.28357819 3.28010559 19.5827179 C3.26614627 22.93174943 3.23920104 26.28016758 3.20599365 29.62902832 C3.17528105 33.04755353 3.16159776 36.46614215 3.14648438 39.88476562 C3.11337212 46.59003537 3.06156651 53.29493357 3 60 C-0.96 59.67 -4.92 59.34 -9 59 C-9.06776678 51.75034432 -9.12281052 44.50086159 -9.15543652 37.25095654 C-9.17109511 33.88455123 -9.19233621 30.51837377 -9.22631836 27.15209961 C-9.26261749 23.28232751 -9.2797075 19.41287974 -9.29296875 15.54296875 C-9.30845261 14.33352097 -9.32393646 13.12407318 -9.33988953 11.87797546 C-9.34011612 10.75703995 -9.34034271 9.63610443 -9.34057617 8.48120117 C-9.34723801 7.49302902 -9.35389984 6.50485687 -9.36076355 5.48674011 C-9 3 -9 3 -7.66621399 1.18086243 C-5.07498362 -0.65556831 -3.079802 -0.38497525 0 0 Z " fill="#FB4444" transform="translate(284,71)"/>
<path d="M0 0 C2.03895462 1.54390926 2.89009211 2.43270606 3.38095093 4.96629333 C3.38333771 5.71145706 3.38572449 6.45662079 3.38818359 7.22436523 C3.39764008 8.07212021 3.40709656 8.91987518 3.4168396 9.7933197 C3.41076691 10.70586014 3.40469421 11.61840057 3.3984375 12.55859375 C3.40274277 13.96964134 3.40274277 13.96964134 3.40713501 15.40919495 C3.40917665 17.39886069 3.40363979 19.38854647 3.39111328 21.37817383 C3.37507903 24.42249542 3.39094944 27.46548574 3.41015625 30.50976562 C3.40817348 32.44271126 3.40432912 34.37565607 3.3984375 36.30859375 C3.40754654 37.67436806 3.40754654 37.67436806 3.4168396 39.06773376 C3.34722669 45.33159813 3.34722669 45.33159813 1.66259766 48.57446289 C0 50 0 50 -3 50.5 C-6 50 -6 50 -7.66259766 48.57446289 C-9.73259852 44.58976791 -9.42795734 40.73468528 -9.3984375 36.30859375 C-9.40274277 34.89611107 -9.40274277 34.89611107 -9.40713501 33.45509338 C-9.40917413 31.46720782 -9.4036549 29.47930212 -9.39111328 27.49145508 C-9.37503968 24.44502058 -9.39097644 21.3999092 -9.41015625 18.35351562 C-9.40817414 16.42187207 -9.40433114 14.49022933 -9.3984375 12.55859375 C-9.40451019 11.64605331 -9.41058289 10.73351288 -9.4168396 9.7933197 C-9.40738312 8.94556473 -9.39792664 8.09780975 -9.38818359 7.22436523 C-9.38579681 6.47920151 -9.38341003 5.73403778 -9.38095093 4.96629333 C-8.37679058 -0.21672018 -4.6532704 -0.5816588 0 0 Z " fill="#FC4444" transform="translate(457,231)"/>
<path d="M0 0 C2.03895462 1.54390926 2.89009211 2.43270606 3.38095093 4.96629333 C3.38333771 5.71145706 3.38572449 6.45662079 3.38818359 7.22436523 C3.39764008 8.07212021 3.40709656 8.91987518 3.4168396 9.7933197 C3.41076691 10.70586014 3.40469421 11.61840057 3.3984375 12.55859375 C3.40274277 13.96964134 3.40274277 13.96964134 3.40713501 15.40919495 C3.40917665 17.39886069 3.40363979 19.38854647 3.39111328 21.37817383 C3.37507903 24.42249542 3.39094944 27.46548574 3.41015625 30.50976562 C3.40817348 32.44271126 3.40432912 34.37565607 3.3984375 36.30859375 C3.40754654 37.67436806 3.40754654 37.67436806 3.4168396 39.06773376 C3.34722669 45.33159813 3.34722669 45.33159813 1.66259766 48.57446289 C0 50 0 50 -3 50.5 C-6 50 -6 50 -7.66259766 48.57446289 C-9.73259852 44.58976791 -9.42795734 40.73468528 -9.3984375 36.30859375 C-9.40274277 34.89611107 -9.40274277 34.89611107 -9.40713501 33.45509338 C-9.40917413 31.46720782 -9.4036549 29.47930212 -9.39111328 27.49145508 C-9.37503968 24.44502058 -9.39097644 21.3999092 -9.41015625 18.35351562 C-9.40817414 16.42187207 -9.40433114 14.49022933 -9.3984375 12.55859375 C-9.40451019 11.64605331 -9.41058289 10.73351288 -9.4168396 9.7933197 C-9.40738312 8.94556473 -9.39792664 8.09780975 -9.38818359 7.22436523 C-9.38579681 6.47920151 -9.38341003 5.73403778 -9.38095093 4.96629333 C-8.37679058 -0.21672018 -4.6532704 -0.5816588 0 0 Z " fill="#FC4444" transform="translate(61,231)"/>
<path d="M0 0 C2.34450869 1.67945146 2.93148642 2.63471351 3.4675293 5.49267578 C3.58358271 8.70446066 3.65624455 11.91120444 3.6875 15.125 C3.74099609 16.2284375 3.79449219 17.331875 3.84960938 18.46875 C3.91945026 24.65885814 3.37652518 28.33074474 -0.79296875 33.0546875 C-2.16940395 34.39688462 -3.57165267 35.71318576 -5 37 C-6.33816094 38.32848818 -7.67292964 39.66043298 -9 41 C-9.0741205 35.64317867 -9.12858776 30.28665538 -9.16479492 24.92944336 C-9.1798876 23.10679933 -9.20036395 21.28419164 -9.22631836 19.46166992 C-9.26268103 16.842845 -9.27972124 14.22449993 -9.29296875 11.60546875 C-9.30845261 10.78974899 -9.32393646 9.97402924 -9.33988953 9.1335907 C-9.34158598 3.43943765 -9.34158598 3.43943765 -7.66621399 1.28413391 C-5.09984597 -0.69373941 -3.13471123 -0.3918389 0 0 Z " fill="#FA4444" transform="translate(160,141)"/>
<path d="M0 0 C0.74717285 0.7518457 1.4943457 1.50369141 2.26416016 2.27832031 C3.81231872 3.81846592 5.37833826 5.3423633 6.99755859 6.80761719 C10.89064423 10.62042199 12.46168284 13.3969492 12.7890625 18.890625 C12.77064697 21.01104201 12.71520707 23.13142262 12.625 25.25 C12.61533203 26.86261719 12.61533203 26.86261719 12.60546875 28.5078125 C12.41474236 37.50561057 12.41474236 37.50561057 9 41 C6 41.4375 6 41.4375 3 41 C1.33378601 39.71195984 1.33378601 39.71195984 0 38 C-0.26167679 35.05815259 -0.34873921 32.3326279 -0.29296875 29.39453125 C-0.28872391 28.55532639 -0.28447906 27.71612152 -0.28010559 26.85148621 C-0.26331464 24.17149755 -0.2256623 21.4922613 -0.1875 18.8125 C-0.17245367 16.99545357 -0.15876518 15.17839535 -0.14648438 13.36132812 C-0.11340982 8.90726224 -0.06162513 4.45375868 0 0 Z " fill="#FB4444" transform="translate(151,330)"/>
<path d="M0 0 C0.0741205 5.35682133 0.12858776 10.71334462 0.16479492 16.07055664 C0.1798876 17.89320067 0.20036395 19.71580836 0.22631836 21.53833008 C0.26268103 24.157155 0.27972124 26.77550007 0.29296875 29.39453125 C0.30845261 30.21025101 0.32393646 31.02597076 0.33988953 31.8664093 C0.34158627 37.56156237 0.34158627 37.56156237 -1.33378601 39.71195984 C-3 41 -3 41 -6 41.4375 C-9 41 -9 41 -10.64501953 39.28076172 C-14.59984864 32.62382234 -13.45239766 21.34232837 -12 14 C-10.39818603 10.36123075 -4.55998564 0 0 0 Z " fill="#FA4344" transform="translate(361,330)"/>
<path d="M0 0 C1.66621399 1.28413391 1.66621399 1.28413391 3 3 C3.26167679 5.94184741 3.34873921 8.6673721 3.29296875 11.60546875 C3.28872391 12.44467361 3.28447906 13.28387848 3.28010559 14.14851379 C3.26331464 16.82850245 3.2256623 19.5077387 3.1875 22.1875 C3.17245367 24.00454643 3.15876518 25.82160465 3.14648438 27.63867188 C3.11340982 32.09273776 3.06162513 36.54624132 3 41 C2.07622559 40.06365723 2.07622559 40.06365723 1.13378906 39.10839844 C-0.93816813 36.99199694 -0.93816813 36.99199694 -3.140625 35.265625 C-8.76707408 29.88924033 -9.5145787 25.48302817 -9.70019531 17.86816406 C-9.64641041 3.86340206 -9.64641041 3.86340206 -7.65161133 1.19897461 C-5.07661213 -0.67032636 -3.08182778 -0.38522847 0 0 Z " fill="#FA4444" transform="translate(358,141)"/>
<path d="M0 0 C2 2 2 2 2.22705078 4.88916016 C2.21134033 6.69586182 2.21134033 6.69586182 2.1953125 8.5390625 C2.18886719 9.84101562 2.18242187 11.14296875 2.17578125 12.484375 C2.15906929 13.86458595 2.14213939 15.24479429 2.125 16.625 C2.11497006 18.01301452 2.10584423 19.40103589 2.09765625 20.7890625 C2.07401863 24.19288026 2.04106867 27.59635506 2 31 C0.37750059 31.83819158 -1.24808497 32.6704116 -2.875 33.5 C-3.77992188 33.9640625 -4.68484375 34.428125 -5.6171875 34.90625 C-8 36 -8 36 -10 36 C-10.07416067 31.35526018 -10.12860615 26.71086501 -10.16479492 22.06567383 C-10.17988094 20.48553464 -10.2003525 18.90543731 -10.22631836 17.32543945 C-10.26271126 15.05409415 -10.27972762 12.78330241 -10.29296875 10.51171875 C-10.30845261 9.80536789 -10.32393646 9.09901703 -10.33988953 8.3712616 C-10.34087709 5.4927713 -10.32319091 3.48640019 -8.7043457 1.05004883 C-5.85511601 -0.70536399 -3.24037151 -0.29457923 0 0 Z " fill="#F54342" transform="translate(210,105)"/>
<path d="M0 0 C3.5625 0.3125 3.5625 0.3125 5.2668457 1.3762207 C7.22182234 4.29781853 6.93218469 7.21417503 6.85546875 10.60546875 C6.85122391 11.31149734 6.84697906 12.01752594 6.84260559 12.74494934 C6.82583034 14.99702303 6.78818243 17.24819742 6.75 19.5 C6.73495157 21.02798185 6.72126344 22.55597776 6.70898438 24.08398438 C6.67593089 27.82716872 6.62415832 31.56968196 6.5625 35.3125 C2.1652062 34.53025257 -1.38309445 33.14095741 -5.4375 31.3125 C-5.48689115 27.21911348 -5.52321501 23.12584202 -5.54736328 19.03222656 C-5.55742877 17.63929219 -5.57108234 16.24637898 -5.58837891 14.85351562 C-5.6126022 12.8529564 -5.62290814 10.85224385 -5.6328125 8.8515625 C-5.64328613 7.64709473 -5.65375977 6.44262695 -5.66455078 5.20166016 C-5.32221967 0.84558879 -4.2856888 0.38960807 0 0 Z " fill="#F54343" transform="translate(305.4375,104.6875)"/>
<path d="M0 0 C4.03095707 1.60124374 8.01768534 3.28213877 12 5 C12.07421454 8.93260944 12.12863136 12.86494722 12.16479492 16.7980957 C12.18728333 18.79327701 12.22540198 20.78826213 12.26367188 22.78320312 C12.27333984 24.03681641 12.28300781 25.29042969 12.29296875 26.58203125 C12.31653442 28.31803589 12.31653442 28.31803589 12.34057617 30.08911133 C12 33 12 33 10.66918945 34.8737793 C8.03165198 36.65335519 6.08520431 36.44992563 3 36 C0.42358219 33.58373688 0.01537911 32.15315172 -0.34057617 28.60839844 C-0.32486572 27.2887207 -0.30915527 25.96904297 -0.29296875 24.609375 C-0.28872391 23.90476135 -0.28447906 23.20014771 -0.28010559 22.47418213 C-0.26336538 20.23239288 -0.22572404 17.99151569 -0.1875 15.75 C-0.17244704 14.22657552 -0.1587597 12.70313689 -0.14648438 11.1796875 C-0.11347791 7.45283059 -0.06172854 3.72650437 0 0 Z " fill="#F54242" transform="translate(200,371)"/>
<path d="M0 0 C0.07429025 4.34159838 0.12866741 8.6828577 0.16479492 13.02490234 C0.17985923 14.50120491 0.20031482 15.97746288 0.22631836 17.45361328 C0.26280739 19.57856258 0.27974933 21.70291901 0.29296875 23.828125 C0.31653442 25.7447998 0.31653442 25.7447998 0.34057617 27.70019531 C-0.01986034 31.19242467 -0.47008419 32.60662638 -3 35 C-6.08520431 35.44992563 -8.03165198 35.65335519 -10.66918945 33.8737793 C-12.62986299 31.11315383 -12.33851645 28.93737882 -12.29296875 25.58203125 C-12.28330078 24.32841797 -12.27363281 23.07480469 -12.26367188 21.78320312 C-12.23853516 20.47287109 -12.21339844 19.16253906 -12.1875 17.8125 C-12.17244967 16.47722837 -12.15876187 15.14194063 -12.14648438 13.80664062 C-12.11107694 10.53735424 -12.0616889 7.26887907 -12 4 C-10.56570999 3.32645501 -9.12742943 2.66140299 -7.6875 2 C-6.88699219 1.62875 -6.08648437 1.2575 -5.26171875 0.875 C-3 0 -3 0 0 0 Z " fill="#F64243" transform="translate(312,372)"/>
</svg>
